<svg width="40" height="40" xmlns="http://www.w3.org/2000/svg" xml:space="preserve" version="1.0">

 <g>
  <title>The Hong Kong Polytechnic University</title>
  <path stroke="null" id="svg_1" fill="#AB0334" d="m12.80635,34.05c-0.3,-1.5 -0.2,-3 0.4,-4.3l-7.7,-7.8c-1.1,-1.1 -1,-2.9 0.1,-4c1.1,-1.1 2.9,-1.1 4,0l2,2l-3,3l2.4,2.4l8.2,-8.4l-2.4,-2.4l-3,3l-2,-1.9l0,0c-2.4,-2.4 -6.3,-2.4 -8.8,0s-2.4,6.3 0,8.8c0.1,0 9.8,9.6 9.8,9.6m21.4,-6.8c-1.5,0.3 -3,0.2 -4.3,-0.4l-7.7,7.7c-1.1,1.1 -2.9,1.1 -4,-0.1c0,0 0,0 0,0c-1.1,-1.1 -1.1,-2.9 0,-4l2,-2l3,3l2.4,-2.4l-8.5,-8.3l-2.4,2.5l3,3l-2,1.9l0,0c-2.4,2.4 -2.4,6.4 0,8.8c2.4,2.4 6.4,2.4 8.8,0l0,0c0,0.1 9.7,-9.7 9.7,-9.7m-6.9,-21.2c0.3,1.5 0.2,3 -0.4,4.3l7.8,7.8c1.1,1.1 1.1,2.9 -0.1,4c-1.1,1.1 -2.9,1.1 -4,0l-2,-2l3,-3l-2.3,-2.4l-8.3,8.4l2.4,2.4l3,-3l1.9,2l0,0c2.5,2.4 6.4,2.3 8.8,-0.2c2.3,-2.4 2.3,-6.2 0,-8.6c-0.1,0 -9.8,-9.8 -9.8,-9.7m-21.3,6.8c1.5,-0.3 3,-0.2 4.4,0.4l7.7,-7.8c1.1,-1.1 2.9,-1.1 4,0.1c1.1,1.1 1.1,2.9 0,4l-2,2l-3,-3l-2.3,2.3l8.4,8.4l2.4,-2.4l-3,-3l2,-2l0,0c2.4,-2.4 2.4,-6.4 0,-8.8s-6.4,-2.4 -8.8,0c0,0 -9.8,9.7 -9.8,9.8" class="st0"/>
 </g>
</svg>