<svg width="305" height="305" viewBox="0 0 305 305" xmlns="http://www.w3.org/2000/svg" version="1.1" xml:space="preserve">
 <metadata id="metadata8">image/svg+xml</metadata>
 <defs id="defs6">
  <clipPath clipPathunits="userSpaceOnUse" id="clipPath18">
   <path d="m0,612.29l858.9,0l0,-612.29l-858.9,0l0,612.29z" id="path16"/>
  </clipPath>
 </defs>
 <g>
  <title>Layer 1</title>
  <g id="svg_3">
   <g transform="matrix(1.33 0 0 -1.33 0 816.38)" id="g60">
    <path fill-rule="nonzero" fill="#98214a" d="m43.14,442.14c-0.28,-0.19 -0.41,-0.14 -0.51,0c-0.16,0.23 0.2,0.47 0.63,0.9c2.61,2.56 4.81,5.73 2.52,9.17c-1.6,2.4 -3.74,2.95 -5.55,1.74c-4.75,-3.17 3.86,-11.03 -1.97,-14.93c-2.77,-1.85 -6.42,-0.88 -8.37,2.03c-1.48,2.21 -1.32,4.02 -1.76,4.67c-0.55,0.82 -0.97,0.03 -1.25,0.45c-0.11,0.16 -0.1,0.31 0.23,0.57l4.16,3.39c0.41,0.34 0.61,0.51 0.73,0.59c0.17,0.11 0.28,0.09 0.36,-0.03c0.16,-0.24 -0.32,-0.59 -1.01,-1.59c-1.92,-2.78 -2.62,-5.09 -0.88,-7.7c1.11,-1.67 2.73,-2.5 4.51,-1.31c3.86,2.58 -4.66,10.7 1.71,14.96c3.13,2.09 7.29,1.06 9.66,-2.5c1.56,-2.33 1.21,-4.16 1.82,-5.07c0.61,-0.92 1.32,-0.24 1.59,-0.64c0.08,-0.12 0.08,-0.22 -0.09,-0.33l-6.54,-4.37z" id="path62"/>
   </g>
   <g transform="matrix(1.33 0 0 -1.33 0 816.38)" id="g64">
    <path fill-rule="nonzero" fill="#98214a" d="m22.9,458.87c-2.15,-0.72 -0.32,-2.68 -1.07,-2.93c-0.21,-0.07 -0.39,-0.01 -0.53,0.42c-0.46,1.37 -0.84,2.67 -1.2,3.74c-0.36,1.07 -0.85,2.34 -1.31,3.71c-0.14,0.43 -0.05,0.58 0.17,0.66c0.75,0.25 0.48,-2.41 2.62,-1.68l6.17,2.07l-2.37,7.03l-6.17,-2.08c-2.14,-0.72 -0.32,-2.67 -1.07,-2.93c-0.21,-0.07 -0.39,-0.01 -0.53,0.42c-0.46,1.37 -0.84,2.67 -1.2,3.75c-0.36,1.07 -0.85,2.34 -1.31,3.71c-0.14,0.43 -0.05,0.58 0.17,0.65c0.75,0.25 0.48,-2.4 2.62,-1.68l13.89,4.67c2.14,0.72 0.32,2.68 1.07,2.93c0.21,0.07 0.39,0.01 0.53,-0.42c0.46,-1.37 0.84,-2.67 1.2,-3.74c0.36,-1.07 0.85,-2.34 1.31,-3.71c0.15,-0.43 0.05,-0.58 -0.17,-0.65c-0.75,-0.25 -0.48,2.4 -2.63,1.68l-7.08,-2.38l2.36,-7.03l7.08,2.38c2.15,0.72 0.33,2.68 1.07,2.93c0.21,0.07 0.38,0.01 0.53,-0.42c0.46,-1.37 0.84,-2.67 1.2,-3.75c0.36,-1.07 0.85,-2.34 1.31,-3.71c0.14,-0.43 0.05,-0.58 -0.17,-0.65c-0.75,-0.25 -0.48,2.41 -2.62,1.68l-13.89,-4.67z" id="path66"/>
   </g>
   <g transform="matrix(1.33 0 0 -1.33 0 816.38)" id="g68">
    <path fill-rule="nonzero" fill="#98214a" d="m15.67,486.78c-2.26,-0.11 -1.04,-2.49 -1.83,-2.52c-0.23,-0.01 -0.37,0.09 -0.4,0.55c-0.07,1.44 -0.08,2.8 -0.13,3.93c-0.17,3.5 -0.36,6.84 -0.56,10.17l5.33,1.68c0.42,0.13 0.64,0.2 0.73,0.21c0.14,0.01 0.23,-0.07 0.24,-0.27c0.01,-0.25 -0.47,-0.25 -2.25,-1.44c-2.14,-1.44 -3.21,-3.33 -3.04,-6.72l0.07,-1.52l8.14,0.4l-0.03,0.71c-0.1,1.98 -1.64,3.35 -3.68,3.36c-0.57,0 -0.71,0.08 -0.72,0.36c-0.01,0.17 0.13,0.29 0.38,0.3l8.65,0.42c0.25,0.01 0.4,-0.09 0.41,-0.26c0.01,-0.28 -0.12,-0.37 -0.69,-0.43c-2.51,-0.23 -3.77,-1.74 -3.67,-3.72l0.04,-0.71l7.12,0.35c1.3,0.06 1.95,0.61 1.86,2.41c-0.21,4.41 -3.47,6.63 -6.31,7.37c-0.55,0.14 -0.8,0.16 -0.81,0.41c-0.01,0.2 0.13,0.29 0.3,0.3c0.17,0.01 0.51,-0.03 0.82,-0.07l6.33,-0.94c0.15,-3.73 0.31,-7.49 0.5,-11.42c0.06,-1.13 0.18,-2.48 0.25,-3.92c0.02,-0.45 -0.11,-0.57 -0.34,-0.58c-0.79,-0.04 0.19,2.44 -2.07,2.33l-14.64,-0.71z" id="path70"/>
   </g>
   <g transform="matrix(1.33 0 0 -1.33 0 816.38)" id="g72">
    <path fill-rule="nonzero" fill="#98214a" d="m28.44,510.29c2.21,-0.48 3.32,0.2 3.86,0.95c0.5,0.7 0.38,1.48 0.85,1.38c0.16,-0.04 0.29,-0.12 0.22,-0.45c-0.2,-0.94 -0.5,-2 -0.75,-3.14c-0.25,-1.13 -0.43,-2.22 -0.64,-3.16c-0.07,-0.33 -0.22,-0.36 -0.39,-0.32c-0.47,0.1 -0.04,0.76 -0.2,1.61c-0.18,0.91 -0.9,1.99 -3.11,2.48l-12.07,2.65c-1.53,-0.62 -2.05,-1.32 -2.36,-2.17c-0.15,-0.43 -0.2,-0.62 -0.5,-0.56c-0.22,0.05 -0.28,0.18 -0.23,0.4c0.21,0.94 0.48,1.95 0.71,2.97l0.68,3.1l14.6,7.17l0.01,0.06l-8.18,1.79c-2.21,0.48 -3.32,-0.2 -3.86,-0.95c-0.5,-0.7 -0.38,-1.48 -0.85,-1.38c-0.16,0.04 -0.29,0.12 -0.22,0.45c0.21,0.94 0.5,2.01 0.75,3.14c0.25,1.13 0.43,2.22 0.64,3.16c0.07,0.33 0.22,0.36 0.39,0.32c0.47,-0.1 0.04,-0.76 0.2,-1.61c0.18,-0.91 0.89,-1.99 3.1,-2.48l14.23,-3.12c0.53,-0.12 0.91,-0.23 0.86,-0.45c-0.05,-0.25 -0.43,-0.37 -0.81,-0.55l-18.14,-8.77l-0.01,-0.06l11.22,-2.46z" id="path74"/>
   </g>
   <g transform="matrix(1.33 0 0 -1.33 0 816.38)" id="g76">
    <path fill-rule="nonzero" fill="#98214a" d="m38.98,532.3c1.37,2.92 0.85,5.35 -0.22,7.2c-1.08,1.88 -2.63,2.58 -2.43,3.02c0.05,0.1 0.19,0.19 0.39,0.1c0.15,-0.07 0.5,-0.33 0.94,-0.66l4.91,-3.58c-0.99,-2.04 -2,-4.12 -2.98,-6.22c-0.98,-2.1 -1.92,-4.22 -2.91,-6.32c-0.09,-0.2 -0.27,-0.25 -0.37,-0.2c-0.13,0.06 -0.26,0.25 -0.48,0.57l-11.52,17.06l-0.72,-1.54c-1.33,-2.84 -1.14,-5.15 0.28,-7.32c1.27,-1.94 1.68,-1.88 1.52,-2.21c-0.07,-0.15 -0.17,-0.17 -0.3,-0.11c-0.08,0.04 -0.26,0.18 -0.59,0.47l-4.29,3.58c0.86,1.84 1.79,3.69 2.68,5.58c0.89,1.9 1.72,3.79 2.63,5.74c0.16,0.33 0.27,0.37 0.4,0.31c0.13,-0.06 0.33,-0.37 0.59,-0.74l11.49,-16.8l0.98,2.1z" id="path78"/>
   </g>
   <g transform="matrix(1.33 0 0 -1.33 0 816.38)" id="g80">
    <path fill-rule="nonzero" fill="#98214a" d="m32.1,553.79c-1.77,1.42 -2.43,-1.17 -3.04,-0.68c-0.18,0.14 -0.22,0.32 0.07,0.67c0.9,1.12 1.79,2.15 2.5,3.03c0.71,0.88 1.51,1.98 2.41,3.1c0.29,0.35 0.47,0.35 0.64,0.21c0.62,-0.49 -1.77,-1.7 0,-3.12l5.08,-4.07l4.64,5.78l-5.08,4.07c-1.76,1.42 -2.43,-1.17 -3.04,-0.68c-0.18,0.14 -0.21,0.32 0.07,0.67c0.9,1.12 1.79,2.15 2.5,3.03c0.71,0.88 1.51,1.98 2.42,3.1c0.28,0.35 0.47,0.35 0.64,0.21c0.62,-0.49 -1.77,-1.7 0,-3.12l11.43,-9.17c1.77,-1.42 2.43,1.17 3.04,0.68c0.18,-0.14 0.21,-0.32 -0.07,-0.67c-0.9,-1.12 -1.8,-2.15 -2.5,-3.03c-0.71,-0.88 -1.51,-1.98 -2.42,-3.1c-0.28,-0.35 -0.46,-0.35 -0.64,-0.21c-0.62,0.5 1.77,1.7 0,3.12l-5.83,4.67l-4.64,-5.78l5.83,-4.67c1.76,-1.42 2.42,1.17 3.04,0.68c0.18,-0.14 0.22,-0.32 -0.07,-0.67c-0.9,-1.12 -1.8,-2.15 -2.51,-3.03c-0.71,-0.88 -1.51,-1.98 -2.41,-3.1c-0.28,-0.35 -0.47,-0.35 -0.64,-0.21c-0.62,0.49 1.76,1.7 0,3.12l-11.43,9.17z" id="path82"/>
   </g>
   <g transform="matrix(1.33 0 0 -1.33 0 816.38)" id="g84">
    <path fill-rule="nonzero" fill="#98214a" d="m51.65,574.94c-1.32,1.84 -2.65,-0.47 -3.11,0.17c-0.13,0.18 -0.12,0.36 0.25,0.63c1.17,0.84 2.31,1.58 3.23,2.24c2.85,2.04 5.55,4.01 8.25,5.97l4.29,-3.57c0.34,-0.28 0.52,-0.43 0.56,-0.5c0.08,-0.12 0.06,-0.23 -0.1,-0.35c-0.21,-0.15 -0.47,0.26 -2.43,1.11c-2.37,1.02 -4.54,0.9 -7.29,-1.08l-1.24,-0.89l4.74,-6.63l0.58,0.41c1.61,1.15 1.93,3.19 0.84,4.91c-0.31,0.48 -0.32,0.64 -0.09,0.8c0.14,0.1 0.31,0.05 0.46,-0.16l5.04,-7.04c0.15,-0.21 0.14,-0.39 0,-0.49c-0.23,-0.16 -0.38,-0.1 -0.73,0.34c-1.55,1.98 -3.5,2.22 -5.11,1.07l-0.57,-0.41l4.15,-5.8c0.76,-1.06 1.57,-1.31 3.04,-0.26c3.59,2.57 3.69,6.5 2.78,9.29c-0.18,0.54 -0.3,0.76 -0.09,0.91c0.16,0.11 0.31,0.05 0.41,-0.09c0.1,-0.14 0.25,-0.45 0.39,-0.73l2.64,-5.83c-3.05,-2.15 -6.13,-4.32 -9.33,-6.6c-0.92,-0.66 -1.99,-1.49 -3.16,-2.33c-0.37,-0.26 -0.54,-0.21 -0.68,-0.03c-0.46,0.64 2.16,1.16 0.84,3l-8.53,11.92z" id="path86"/>
   </g>
   <g transform="matrix(1.33 0 0 -1.33 0 816.38)" id="g88">
    <path fill-rule="nonzero" fill="#98214a" d="m77.83,576.68c0.8,-2.12 1.98,-2.67 2.9,-2.72c0.86,-0.04 1.45,0.49 1.62,0.04c0.06,-0.16 0.05,-0.31 -0.26,-0.43c-0.9,-0.34 -1.95,-0.68 -3.04,-1.08c-1.08,-0.41 -2.1,-0.85 -3,-1.19c-0.32,-0.12 -0.42,-0.01 -0.48,0.15c-0.17,0.45 0.62,0.45 1.24,1.04c0.66,0.64 1.18,1.84 0.38,3.95l-4.36,11.57c-1.35,0.94 -2.23,1 -3.11,0.79c-0.44,-0.11 -0.63,-0.18 -0.74,0.11c-0.08,0.21 0,0.33 0.21,0.41c0.9,0.34 1.9,0.66 2.88,1.02l2.96,1.12l13.97,-8.34l0.05,0.02l-2.96,7.83c-0.8,2.12 -1.98,2.67 -2.9,2.71c-0.86,0.04 -1.45,-0.49 -1.62,-0.04c-0.06,0.16 -0.06,0.31 0.26,0.43c0.9,0.34 1.95,0.68 3.04,1.08c1.08,0.41 2.1,0.85 3,1.19c0.32,0.12 0.42,0.01 0.48,-0.15c0.17,-0.45 -0.62,-0.45 -1.24,-1.04c-0.66,-0.64 -1.18,-1.84 -0.38,-3.96l5.14,-13.63c0.19,-0.5 0.3,-0.88 0.09,-0.96c-0.24,-0.09 -0.54,0.16 -0.9,0.39l-17.24,10.43l-0.05,-0.02l4.05,-10.75z" id="path90"/>
   </g>
   <g transform="matrix(1.33 0 0 -1.33 0 816.38)" id="g92">
    <path fill-rule="nonzero" fill="#98214a" d="m66.53,419.67c0,-1.47 -1.19,-2.65 -2.65,-2.65c-1.47,0 -2.65,1.19 -2.65,2.65c0,1.47 1.19,2.65 2.65,2.65c1.46,0 2.65,-1.19 2.65,-2.65" id="path94"/>
   </g>
   <g transform="matrix(1.33 0 0 -1.33 0 816.38)" id="g96">
    <path fill-rule="nonzero" fill="#98214a" d="m167.31,419.67c0,-1.47 -1.19,-2.65 -2.65,-2.65c-1.47,0 -2.65,1.19 -2.65,2.65c0,1.47 1.19,2.65 2.65,2.65c1.46,0 2.65,-1.19 2.65,-2.65" id="path98"/>
   </g>
   <g transform="matrix(1.33 0 0 -1.33 0 816.38)" id="g100">
    <path fill-rule="nonzero" fill="#98214a" d="m84.56,403.93c-0.38,-1.13 0.12,-1.95 1.62,-2.54c1.42,-0.56 1.72,-0.66 1.58,-1.07c-0.05,-0.16 -0.24,-0.28 -0.54,-0.18c-1.83,0.61 -3.67,1.26 -5.39,1.81c-1.83,0.58 -3.69,1.18 -5.51,1.79c-0.3,0.1 -0.38,0.3 -0.32,0.47c0.14,0.4 0.43,0.3 1.91,-0.1c1.56,-0.43 2.45,-0.07 2.83,1.05l4.2,12.53c0.21,0.62 0.09,0.81 -0.39,0.97l-3.65,1.22c-0.24,0.08 -0.34,0.23 -0.28,0.42c0.13,0.4 0.61,0.04 3.01,-0.44c3.61,-0.73 5.36,0.23 5.89,0.05c0.24,-0.08 0.3,-0.25 0.15,-0.71l-5.11,-15.26z" id="path102"/>
   </g>
   <g transform="matrix(1.33 0 0 -1.33 0 816.38)" id="g104">
    <path fill-rule="nonzero" fill="#98214a" d="m103.26,405.87c1.35,-0.14 2.94,0.6 3.31,1.18c0.14,0.21 0.42,1.32 0.55,2.47c0.55,5.09 -0.91,6.67 -2.99,6.89c-1.6,0.17 -3.34,-0.61 -3.8,-4.94c-0.41,-3.85 1.1,-5.41 2.93,-5.6m1.04,11.04c4.64,-0.5 7.07,-4.4 6.57,-9.1c-0.87,-8.13 -11.47,-10.12 -12.73,-9.99c-0.14,0.01 -0.16,0.1 -0.14,0.24c0.04,0.34 5.99,1.21 8.31,7.99c-1.17,-0.59 -2.38,-0.94 -3.9,-0.78c-4.58,0.49 -6.27,3.63 -5.97,6.44c0.36,3.38 3.11,5.7 7.87,5.19" id="path106"/>
   </g>
   <g transform="matrix(1.33 0 0 -1.33 0 816.38)" id="g108">
    <path fill-rule="nonzero" fill="#98214a" d="m122.96,416.23c-1.97,-0.17 -3.21,-1.58 -3.04,-3.58c0.25,-2.88 4.62,-3.52 6.65,-4c0.61,0.79 1.05,1.62 0.89,3.54c-0.25,2.9 -2.01,4.26 -4.49,4.04m0.53,-18.64c2.82,0.24 4.13,2.15 3.95,4.29c-0.13,1.52 -0.86,2.71 -3.97,3.55c-2.94,0.8 -3.18,1.03 -3.58,1c-0.51,-0.04 -1.79,-1.63 -1.58,-4.05c0.26,-3.04 2.14,-5.04 5.18,-4.78m-4.28,9.14c-1.77,1.1 -2.57,2.47 -2.7,3.94c-0.26,3.04 2.46,5.72 6.38,6.06c3.24,0.28 5.83,-1.48 6.05,-3.94c0.14,-1.66 -0.62,-3.29 -1.9,-4.34c2.21,-0.55 3.62,-2.47 3.83,-4.87c0.28,-3.24 -2.71,-6.11 -7.33,-6.51c-3.97,-0.34 -6.8,1.8 -7.05,4.7c-0.14,1.6 0.71,3.61 2.73,4.95" id="path110"/>
   </g>
   <g transform="matrix(1.33 0 0 -1.33 0 816.38)" id="g112">
    <path fill-rule="nonzero" fill="#98214a" d="m145.44,413.74c2.08,-0.69 3.81,-1.77 4.5,-3.96c1.14,-3.64 -1.5,-7.55 -5.44,-8.78c-3.83,-1.2 -6.88,-0.19 -7.47,1.73c-0.33,1.05 0.12,2.26 1.23,2.61c1.38,0.43 2.22,-0.2 2.85,-2.02c0.64,-1.87 1.89,-2.25 3.19,-1.85c2.19,0.68 3.27,2.8 2.4,5.61c-0.71,2.27 -2.45,3.47 -4.26,3.5c-1.19,0.01 -2.21,-0.63 -2.33,-0.22c-0.18,0.59 1.05,0.33 2.19,1.45c0.77,0.77 0.9,2.15 0.43,3.63c-0.62,2 -2.33,2.71 -4.51,2.03c-2.89,-0.9 -2.51,-3.15 -3.02,-3.31c-0.14,-0.04 -0.25,0.04 -0.29,0.17c-0.22,0.7 0.63,4.43 4.36,5.6c2.67,0.83 5.77,0.11 6.68,-2.8c0.39,-1.24 0.13,-2.21 -0.49,-3.38" id="path114"/>
   </g>
   <g transform="matrix(1.33 0 0 -1.33 0 816.38)" id="g120">
    <path fill-rule="nonzero" fill="#98214a" d="m94.85,488.25c0.23,-0.15 0.43,-0.21 0.81,-0.2c0.8,0.02 1.29,0.49 1.49,0.58c0.08,0.04 0.3,0.17 0.3,0.22c-0.02,0.34 -1.17,0.78 -1.75,0.81c-0.7,0.03 -1.8,-0.6 -1.8,-0.78c0,-0.21 0.72,-0.53 0.95,-0.63" id="path122"/>
   </g>
   <g transform="matrix(1.33 0 0 -1.33 0 816.38)" id="g124">
    <path fill-rule="nonzero" fill="#98214a" d="m101.64,474.2c0.33,1.67 -0.26,1.22 -3.75,1.34c-1.59,0 -7.15,0.14 -8.74,-0.08c-0.73,-0.1 -0.82,-0.7 -0.82,-1.06c0,-1.21 -0.3,-1.07 5.67,-1.07l2.33,0.18c3.72,0.2 4.67,-0.24 5.31,0.69" id="path126"/>
   </g>
   <g id="svg_2">
    <g transform="matrix(1.33 0 0 -1.33 0 816.38)" id="g20">
     <path fill-rule="nonzero" fill="#98214a" d="m135.17,583.96c-0.65,-4.16 -3.83,-5.79 -7.74,-5.17c-4.36,0.68 -6.84,3.13 -6.38,6.04l1.92,12.24c0.35,2.24 -2.22,1.52 -2.1,2.31c0.04,0.22 0.17,0.35 0.62,0.28c1.42,-0.22 2.76,-0.49 3.88,-0.67c1.12,-0.17 2.47,-0.33 3.89,-0.55c0.45,-0.07 0.54,-0.23 0.5,-0.45c-0.12,-0.78 -2.35,0.68 -2.71,-1.55l-1.92,-12.24c-0.36,-2.29 1.26,-4.38 3.58,-4.74c2.93,-0.46 5.24,1.13 5.76,4.45l1.33,8.47c0.38,2.4 -0.3,3.91 -1.52,4.53c-0.4,0.21 -0.81,0.3 -0.77,0.55c0.03,0.17 0.1,0.3 0.44,0.24c0.73,-0.11 1.81,-0.34 2.96,-0.52c1.14,-0.18 2.24,-0.29 2.97,-0.41c0.34,-0.05 0.37,-0.2 0.34,-0.37c-0.04,-0.25 -0.46,-0.21 -0.9,-0.29c-1.35,-0.22 -2.46,-1.45 -2.84,-3.85l-1.3,-8.3z" id="path22"/>
    </g>
    <g transform="matrix(1.33 0 0 -1.33 0 816.38)" id="g24">
     <path fill-rule="nonzero" fill="#98214a" d="m143.59,579.85c-0.91,-2.07 -0.46,-3.29 0.16,-3.97c0.59,-0.63 1.38,-0.67 1.18,-1.11c-0.07,-0.15 -0.18,-0.26 -0.49,-0.12c-0.88,0.39 -1.87,0.89 -2.93,1.35c-1.06,0.47 -2.09,0.86 -2.97,1.25c-0.31,0.14 -0.3,0.29 -0.24,0.45c0.19,0.44 0.75,-0.12 1.61,-0.13c0.93,-0.01 2.13,0.48 3.04,2.55l5,11.31c-0.3,1.62 -0.88,2.28 -1.66,2.75c-0.39,0.23 -0.57,0.32 -0.45,0.6c0.09,0.21 0.23,0.24 0.43,0.15c0.88,-0.39 1.81,-0.86 2.77,-1.29l2.9,-1.28l4.12,-15.74l0.05,-0.02l3.38,7.66c0.91,2.07 0.46,3.29 -0.16,3.97c-0.59,0.63 -1.38,0.67 -1.18,1.11c0.07,0.15 0.18,0.26 0.49,0.12c0.88,-0.39 1.87,-0.89 2.93,-1.35c1.06,-0.47 2.09,-0.86 2.97,-1.25c0.31,-0.14 0.3,-0.29 0.24,-0.44c-0.19,-0.44 -0.75,0.12 -1.61,0.12c-0.92,0.01 -2.13,-0.48 -3.04,-2.55l-5.89,-13.33c-0.22,-0.49 -0.4,-0.84 -0.61,-0.75c-0.23,0.1 -0.28,0.49 -0.37,0.91l-4.99,19.52l-0.05,0.02l-4.64,-10.51z" id="path26"/>
    </g>
    <g transform="matrix(1.33 0 0 -1.33 0 816.38)" id="g28">
     <path fill-rule="nonzero" fill="#98214a" d="m170.44,579.91c1.32,1.84 -1.3,2.36 -0.84,3c0.13,0.18 0.31,0.23 0.67,-0.03c1.17,-0.84 2.25,-1.68 3.17,-2.33c0.92,-0.66 2.06,-1.4 3.23,-2.24c0.37,-0.26 0.38,-0.44 0.25,-0.63c-0.46,-0.65 -1.8,1.67 -3.11,-0.17l-8.53,-11.92c-1.32,-1.84 1.3,-2.36 0.84,-3c-0.13,-0.18 -0.3,-0.23 -0.67,0.03c-1.17,0.84 -2.24,1.68 -3.16,2.33c-0.92,0.66 -2.06,1.4 -3.23,2.24c-0.37,0.26 -0.38,0.45 -0.25,0.63c0.46,0.65 1.8,-1.67 3.12,0.17l8.53,11.92z" id="path30"/>
    </g>
    <g transform="matrix(1.33 0 0 -1.33 0 816.38)" id="g32">
     <path fill-rule="nonzero" fill="#98214a" d="m188.29,560.45c0.57,0.23 1.16,0.59 1.61,1.02c1.97,1.87 -0.17,3.19 0.34,3.67c0.1,0.1 0.34,0.09 0.56,-0.13c0.66,-0.7 1.26,-1.42 1.92,-2.11c0.64,-0.68 1.32,-1.32 1.99,-2.01c0.39,-0.41 0.54,-0.73 0.36,-0.91c-0.6,-0.56 -1.25,1.81 -5.36,0.22l-15.07,-5.82c-0.34,-0.13 -0.67,-0.24 -0.78,-0.12c-0.12,0.12 0.01,0.44 0.16,0.78l7.3,16.31c1.04,2.35 -0.58,3.04 -0.17,3.42c0.1,0.1 0.3,0.09 0.48,-0.09c0.99,-1.05 1.83,-2.01 2.72,-2.96c0.88,-0.92 1.81,-1.83 2.69,-2.75c0.35,-0.37 0.39,-0.57 0.24,-0.71c-0.43,-0.41 -1.26,1.53 -2.35,0.5c-0.29,-0.27 -0.48,-0.61 -0.6,-0.88l-5.18,-10.99l9.14,3.56z" id="path34"/>
    </g>
    <g transform="matrix(1.33 0 0 -1.33 0 816.38)" id="g36">
     <path fill-rule="nonzero" fill="#98214a" d="m196.45,554.17c1.94,1.16 -0.25,2.68 0.43,3.09c0.19,0.12 0.37,0.09 0.6,-0.3c0.74,-1.24 1.39,-2.43 1.97,-3.4c1.8,-3.01 3.53,-5.86 5.27,-8.71l-3.91,-3.98c-0.31,-0.31 -0.47,-0.48 -0.54,-0.52c-0.12,-0.07 -0.24,-0.04 -0.34,0.13c-0.13,0.22 0.3,0.44 1.31,2.33c1.21,2.27 1.27,4.45 -0.47,7.36l-0.78,1.31l-7,-4.18l0.36,-0.61c1.01,-1.7 3.02,-2.19 4.82,-1.24c0.5,0.27 0.66,0.27 0.81,0.02c0.09,-0.15 0.02,-0.32 -0.2,-0.45l-7.43,-4.44c-0.22,-0.13 -0.4,-0.11 -0.48,0.04c-0.14,0.24 -0.07,0.39 0.4,0.7c2.1,1.39 2.51,3.31 1.49,5.01l-0.36,0.61l-6.12,-3.65c-1.12,-0.67 -1.44,-1.45 -0.51,-3.01c2.26,-3.79 6.18,-4.22 9.03,-3.54c0.55,0.13 0.78,0.24 0.91,0.02c0.1,-0.17 0.03,-0.32 -0.12,-0.4c-0.15,-0.09 -0.47,-0.21 -0.76,-0.32l-6.03,-2.15c-1.89,3.22 -3.79,6.47 -5.81,9.84c-0.58,0.97 -1.32,2.11 -2.06,3.35c-0.23,0.39 -0.17,0.56 0.03,0.68c0.68,0.41 0.98,-2.25 2.92,-1.09l12.58,7.51z" id="path38"/>
    </g>
    <g transform="matrix(1.33 0 0 -1.33 0 816.38)" id="g40">
     <path fill-rule="nonzero" fill="#98214a" d="m201.84,526.37l0.31,-1.06c0.9,-3.07 2.82,-3.98 5.7,-3.13c2.98,0.88 3.8,2.71 3.12,5.02l-0.5,1.71l-8.63,-2.54zm-1.27,-4.18c1.17,1.05 1.25,2.46 0.79,4.04l-6.51,-1.92c-2.17,-0.64 -0.43,-2.66 -1.19,-2.89c-0.22,-0.06 -0.38,0.01 -0.51,0.44c-0.41,1.38 -0.74,2.7 -1.06,3.79c-0.32,1.08 -0.76,2.37 -1.17,3.75c-0.13,0.43 -0.03,0.58 0.19,0.65c0.76,0.22 0.39,-2.42 2.56,-1.78l14.06,4.14c2.17,0.64 0.42,2.66 1.18,2.89c0.22,0.06 0.39,-0.01 0.51,-0.44c0.41,-1.38 0.74,-2.7 1.06,-3.79c0.4,-1.36 0.8,-2.51 1.33,-4.3c1.37,-4.64 0.04,-7.72 -2.73,-8.53c-2.28,-0.67 -4.59,0.18 -6.84,5.59l-0.06,-0.02c0.85,-2.9 0.61,-4.68 -1.11,-6.34l-3.34,-3.2c-1.81,-1.74 -0.26,-3.23 -1.01,-3.46c-0.16,-0.05 -0.31,-0.06 -0.38,0.18c-0.29,0.98 -0.52,1.97 -0.81,2.95l-0.86,2.93l5.9,5.31z" id="path42"/>
    </g>
    <g transform="matrix(1.33 0 0 -1.33 0 816.38)" id="g44">
     <path fill-rule="nonzero" fill="#98214a" d="m204.27,509.37c0.34,0.02 0.43,-0.09 0.44,-0.26c0.01,-0.28 -0.41,-0.3 -1,-0.45c-3.55,-0.85 -7.08,-2.44 -6.88,-6.56c0.14,-2.88 1.69,-4.45 3.86,-4.34c5.71,0.28 2.36,11.44 9.37,11.78c3.33,0.16 5.96,-2.54 6.13,-6.05c0.13,-2.65 -0.93,-4.12 -0.9,-4.91c0.05,-0.99 0.82,-0.53 0.84,-1.03c0.01,-0.2 -0.07,-0.32 -0.49,-0.36l-5.32,-0.77c-0.53,-0.08 -0.79,-0.12 -0.93,-0.13c-0.2,-0.01 -0.29,0.07 -0.29,0.21c-0.01,0.28 0.58,0.34 1.69,0.85c3.08,1.39 4.87,3.01 4.72,6.15c-0.1,2.01 -1.05,3.55 -3.2,3.44c-4.63,-0.23 -1.51,-11.57 -9.17,-11.94c-3.76,-0.18 -6.79,2.84 -7,7.11c-0.14,2.8 1.1,4.19 1.05,5.29c-0.06,1.1 -1.01,0.89 -1.03,1.37c-0.01,0.14 0.04,0.23 0.24,0.24l7.86,0.38z" id="path46"/>
    </g>
    <g transform="matrix(1.33 0 0 -1.33 0 816.38)" id="g48">
     <path fill-rule="nonzero" fill="#98214a" d="m213.01,486.79c2.24,-0.3 1.48,2.26 2.26,2.15c0.22,-0.03 0.35,-0.16 0.29,-0.61c-0.19,-1.43 -0.43,-2.77 -0.58,-3.89c-0.15,-1.12 -0.28,-2.47 -0.47,-3.9c-0.06,-0.45 -0.22,-0.54 -0.44,-0.51c-0.79,0.11 0.63,2.37 -1.61,2.67l-14.52,1.95c-2.24,0.3 -1.47,-2.26 -2.26,-2.15c-0.23,0.03 -0.35,0.16 -0.29,0.61c0.19,1.43 0.43,2.77 0.58,3.89c0.15,1.12 0.28,2.48 0.47,3.9c0.06,0.45 0.21,0.54 0.44,0.51c0.79,-0.1 -0.63,-2.37 1.61,-2.67l14.52,-1.95z" id="path50"/>
    </g>
    <g transform="matrix(1.33 0 0 -1.33 0 816.38)" id="g52">
     <path fill-rule="nonzero" fill="#98214a" d="m210.63,467.89c0.34,5.8 -3.7,7.45 -3.49,8.07c0.04,0.13 0.16,0.21 0.35,0.15c0.11,-0.04 0.52,-0.23 0.92,-0.46l4.61,-2.53c0.38,-0.22 0.46,-0.33 0.41,-0.47c-0.04,-0.13 -0.16,-0.21 -0.32,-0.31c-0.12,-0.11 -0.35,-0.24 -0.47,-0.62l-4.04,-12.01c-0.13,-0.38 -0.03,-0.62 0.01,-0.78c0.06,-0.17 0.11,-0.3 0.06,-0.44c-0.04,-0.14 -0.18,-0.18 -0.61,-0.12l-5.2,0.77c-0.46,0.06 -0.91,0.15 -1.01,0.19c-0.19,0.06 -0.23,0.2 -0.19,0.33c0.21,0.62 4.43,-0.5 7.66,4.32l-14.85,4.99c-1.72,0.58 -2.37,-0.13 -2.81,-1.44c-0.11,-0.32 -0.24,-0.46 -0.51,-0.37c-0.21,0.07 -0.25,0.23 -0.15,0.53c0.51,1.53 1.03,2.88 1.45,4.14c0.42,1.26 0.83,2.65 1.34,4.17c0.1,0.29 0.23,0.4 0.44,0.33c0.27,-0.09 0.29,-0.28 0.19,-0.6c-0.44,-1.31 -0.34,-2.27 1.37,-2.85l14.86,-4.99z" id="path54"/>
    </g>
    <g transform="matrix(1.33 0 0 -1.33 0 816.38)" id="g56">
     <path fill-rule="nonzero" fill="#98214a" d="m191.56,448.06l2.15,-3.94c0.71,-1.31 1.65,-2.23 2.29,-2.63c1.61,-1 2.3,0.64 2.68,0.4c0.14,-0.09 0.17,-0.31 -0.04,-0.65c-0.48,-0.77 -0.89,-1.31 -1.49,-2.27c-0.46,-0.74 -0.9,-1.54 -1.34,-2.26c-0.1,-0.17 -0.26,-0.2 -0.4,-0.11c-0.48,0.3 0.87,1.02 -1.52,5.68l-2.96,5.78l-5.79,3.61c-1.92,1.2 -2.27,-1.45 -2.94,-1.03c-0.19,0.12 -0.25,0.29 -0.01,0.68c0.76,1.23 1.53,2.35 2.13,3.31c0.6,0.96 1.27,2.14 2.03,3.37c0.24,0.38 0.42,0.41 0.61,0.28c0.67,-0.42 -1.55,-1.9 0.37,-3.1l5.33,-3.32l9.44,-0.52c2.54,-0.15 2.75,1.58 3.26,1.27c0.17,-0.1 0.17,-0.31 0.01,-0.57c-0.73,-1.18 -1.47,-2.25 -2.17,-3.38c-0.7,-1.13 -1.34,-2.26 -2.05,-3.39c-0.23,-0.36 -0.4,-0.48 -0.57,-0.38c-0.51,0.32 1.01,1.47 -0.33,2.31c-0.41,0.25 -0.88,0.35 -1.61,0.41l-7.07,0.47z" id="path58"/>
    </g>
    <g transform="matrix(1.33 0 0 -1.33 0 816.38)" id="g116">
     <path fill-rule="nonzero" fill="#98214a" d="m114.37,607.32c-60.33,0 -109.41,-49.08 -109.41,-109.41c0,-60.33 49.08,-109.41 109.41,-109.41c60.33,0 109.41,49.08 109.41,109.41c0,60.33 -49.08,109.41 -109.41,109.41m0,-222.79c-15.31,0 -30.15,3 -44.13,8.91c-13.5,5.71 -25.63,13.89 -36.04,24.3c-10.41,10.41 -18.59,22.54 -24.3,36.04c-5.91,13.98 -8.91,28.83 -8.91,44.13c0,15.31 3,30.16 8.91,44.14c5.71,13.5 13.88,25.63 24.3,36.04c10.41,10.41 22.54,18.59 36.04,24.3c13.98,5.91 28.83,8.91 44.13,8.91c15.31,0 30.16,-3 44.13,-8.91c13.5,-5.71 25.63,-13.89 36.04,-24.3c10.41,-10.41 18.59,-22.54 24.3,-36.04c5.91,-13.98 8.91,-28.83 8.91,-44.14c0,-15.31 -3,-30.16 -8.91,-44.13c-5.71,-13.5 -13.89,-25.63 -24.3,-36.04c-10.41,-10.41 -22.54,-18.59 -36.04,-24.3c-13.98,-5.91 -28.83,-8.91 -44.13,-8.91" id="path118"/>
    </g>
    <g transform="matrix(1.33 0 0 -1.33 0 816.38)" id="g128">
     <path fill-rule="nonzero" fill="#98214a" d="m150.58,499.02c-1.94,-0.69 -1.77,0.26 -1.85,2.98c-0.08,1.78 0.16,7.33 -2.28,8.13c-2.08,1 -4.03,1.06 -4.47,0.41c-0.33,-0.49 -0.2,-10.27 -0.2,-10.27c0.04,-2.31 -0.98,-1.94 -2.02,-1.79c-1.96,0.51 -1.74,1.65 -1.71,3.47c0.03,1.83 0.04,8.41 -0.29,8.77c-0.29,0.32 -4.05,0.54 -4.67,-3.4c-0.6,-3.73 -1.01,-6.23 -1.15,-7.03c-0.09,-0.49 -0.18,-1.12 -0.55,-1.23c-0.7,-0.23 -2.08,-0.54 -2.34,-0.16c-0.4,1.41 -0.03,3.51 0.21,5.87c0.44,2.47 1.03,4.27 1.77,6.44c0.27,1.43 4.12,2.39 6.3,3.31c1.29,0.35 0.92,2.35 0.5,2.4c-0.68,0.17 -3.24,-0.21 -4.82,-0.38c-1.13,0.01 -2.13,-0.88 -2.99,1.06c-0.44,0.97 -0.62,1.81 2.03,1.95l3.45,0.28c0,0 2.46,0.08 2.62,0.49c0.01,0.64 0.13,1.83 0.71,2.8c0.18,0.3 1.19,0.16 1.81,0.11c1.31,-0.38 0.81,-0.44 1.05,-2.07c0.08,-0.74 -0.19,-0.94 4.14,-0.84c3.05,0.1 5.3,0.45 5.2,-0.78c0.03,-0.6 0.04,-1.85 -0.26,-2.16c-0.44,-0.46 -1.3,-0.26 -2.74,-0.34c-2.13,-0.02 -5.59,-0.13 -6.1,-0.2c-0.32,-0.15 -0.28,-0.78 -0.13,-1.43c0.2,-0.46 -0.12,-0.55 1.89,-1.01c6.67,-1.95 6.6,-1.55 7.65,-5.88c0.63,-3.65 0.55,-5.67 0.59,-6.78c-0.04,-1.24 0.45,-2.11 -1.36,-2.75m0.87,-16.35c-1.3,-4.86 -2.43,-4.29 -3.35,-9.66c0.01,-2.06 1.09,-6.57 1.54,-8.23c0.3,-1.57 1.82,-4.67 1.06,-4.9c-0.76,-0.23 -2.47,0.17 -3.06,0.62c-0.89,0.68 -1.61,3.83 -1.98,4.92c-0.71,3.08 -1.89,8.43 0.35,12.77c0.64,1.39 1.68,3.22 2.29,6.74c0.03,4.78 -0.26,5.35 -0.95,7.56c-0.52,1.31 -1.22,2.31 -0.03,2.37c3.54,0 3.09,-1.06 4.11,-3.43c0.63,-2.79 0.7,-3.89 0.02,-8.75m-9.18,-17.95c0.71,-2.51 2.35,-4.7 1.29,-4.97c-0.84,-0.2 -2.33,-0.1 -2.82,0.43c-1.01,1.11 -1.93,3.13 -2.56,6.42c-0.47,3.51 -0.8,5.71 -0.44,8.91c1.1,4.76 3.51,6.24 3.9,10.21c0.23,2.55 -0.05,3.33 -0.43,4.43c-0.66,1.9 -2.89,4.82 -0.3,4.82c1.59,0 1.62,-0.21 2.25,-0.7c1,-0.77 2.12,-4.18 2.29,-6.15c0.25,-2.92 -1.1,-5.86 -2.1,-8.4c-1.12,-2.88 -2.25,-4.49 -2.24,-7.3c0.16,-1.96 0.36,-4.49 1.16,-7.69m-5.77,-5.23c-0.97,-0.23 -1.36,-0.22 -2.62,0c-0.88,0.15 -1.31,1.17 -2.05,3.46c-0.35,1.25 -0.67,2.46 -1.26,5.39c-0.35,3.29 -0.76,5.94 -0.09,7.63c0.33,1.23 1.05,3.01 1.77,4.42c0.58,1.39 1.1,2.4 1.75,4.85c0.43,2.35 0.42,2.58 -0.01,4.59c-0.13,0.8 -0.69,1.84 -1.1,2.92c-0.65,1.42 -1.06,2.13 0.57,2.33c2.37,0.17 2.19,-0.09 3.26,-1.66c1.12,-2.59 1.13,-3.57 1.19,-4.41c0.25,-1.96 0.16,-4.17 -1.71,-8.29c-1.8,-3.55 -2.53,-5.01 -2.28,-8.39c0.28,-3.77 1.12,-7.82 1.62,-9.22c0.39,-1.07 1.71,-3.44 0.95,-3.62m-8.26,17.46c-0.63,-0.62 -2.91,-0.92 -3.4,-1.64c-0.49,-0.72 -0.33,-5.98 0.01,-6.34c0.4,-0.46 1.48,-0.16 3.1,-0.01c1.23,0.03 1.66,-3.8 0.72,-3.91c-0.96,-0.18 -4.46,-0.56 -6.31,-0.75c-1.98,-0.24 -3.11,-0.39 -5,-0.38c-1.76,0.02 -1.74,0.94 -1.91,2.27c0,1.51 -0.17,2.05 1.28,1.86c1.42,-0.05 2.39,-0.23 3.65,0.86c0.94,0.76 0.39,2.74 0.52,4.23c-0.05,1.34 0.32,2.55 -1.57,2.07c-2.66,-0.62 -2.81,-1.05 -2.8,3.48c0.01,1.61 -0.03,3.15 0.07,4.24c0.15,2.17 -0.33,3.28 2.42,3.85c1.18,0.25 0.54,-3.33 0.53,-5c-0.01,-1.6 -0.21,-3.28 0.68,-3.28c2.25,-0.16 0.95,4.89 1.11,9.12c0.09,2.81 -0.5,4.09 1.72,4.5c1.96,0.28 1.51,-0.45 1.6,-2.77c0.03,-2.21 -0.1,-9.82 0.85,-9.75c1.88,0.14 1.52,6.57 1.4,7.7c-0.05,1.73 -0.35,2.48 1.4,2.62c1.35,0.06 1.39,0.16 1.65,-1.38c0.25,-1.61 0.29,-3.13 0.29,-4.34c-0.13,-1.58 -0.2,-2.4 -0.52,-4.08c-0.25,-1.87 -0.87,-2.56 -1.5,-3.17m-15.19,68.84l-15.91,0c0,2.2 1.78,3.98 3.98,3.98l9.95,0c1.1,0 1.99,-0.89 1.99,-1.99l0,-1.99zm-2.01,-48.55c-1.09,-0.57 -5.17,5.02 -8.03,8.65c-0.99,1.26 -4.62,4.38 -7.84,4.56c-4.85,0.27 -11.53,-8.32 -13.21,-11.27c-0.84,-1.3 -1.8,-2.61 -3.24,-1.95c-1.31,0.84 -1.27,0.81 -0.52,3c1.38,3.26 7.39,9.86 9.97,11.7c2.74,2.55 3.41,2.89 4.29,5.93c0.43,5.55 0.28,6.86 -1.33,7.15c-1.59,0.18 -8.77,1.21 -9.06,-3.23c-0.25,-3.77 -0.23,-5.44 -0.25,-6.96c0.01,-2.25 -0.18,-1.89 -2.41,-1.9c-1.46,0 -0.7,7.58 -0.7,12.68c0.79,3.11 2.67,2.53 5.74,2.78c1.59,-0.17 3.68,0.01 4.8,0.01c2.57,0 3.17,1.31 3.33,3.37c0.17,2.14 0.39,2.22 2.19,2.51c1.61,0.26 1.45,-0.98 1.78,-2.6c0.57,-2.52 -0.28,-2.71 3.35,-2.89c3.1,0 5.45,-0.07 6.78,-0.18c3.01,-0.29 4.65,0.01 4.85,-4.62c0.1,-3.89 1.09,-7.56 -0.1,-8.99c-0.5,-0.61 -1.88,-1.33 -2.88,-1.15c-1.26,0.68 1.38,9.27 -1.87,10.73c-1.93,0.87 -7.32,0.88 -8.88,0.14c-1.49,-0.7 -0.88,-3.77 -1.03,-5.96c0,-1.74 -0.01,-3.56 3.54,-5.88c3.58,-2.63 6.83,-5.97 10.11,-9.88c1.96,-2.07 3.69,-4.79 0.6,-5.75m0.53,-13.54c-1.12,-0.23 -7.52,-0.4 -7.64,-0.37c-0.6,0.06 -0.69,-0.03 -0.66,0.84c-0.03,1.25 0.07,1.38 2.22,1.33c2.09,-0.05 3.73,-0.21 3.73,1.04c0,0.95 -0.24,1.14 -3.65,1.02c-1.96,-0.06 -1.87,-0.01 -1.95,0.39c-0.24,1.2 -0.52,1.89 1.18,1.99c2.38,0.21 4.35,0.02 4.48,0.6c0.23,1.02 -0.02,1.39 -1.89,1.26c-3.96,-0.27 -4.16,-0.57 -4.2,0.69c0,1.22 -0.51,1.56 2.64,1.74c3.2,0.06 5.79,0.45 6.01,-0.99c0.55,-1.7 0.58,-3.95 0.67,-7.25c0.06,-2.2 -0.06,-2.14 -0.92,-2.29m-21.56,9.32c-0.27,0.14 0.67,1.53 1.21,1.64c0.67,-0.1 2.5,-1.19 3.06,-1.38c0.17,-0.06 0.74,-0.31 1.45,-0.68c0.35,0.16 0.61,0.29 0.76,0.38c0.59,0.36 3.34,1.9 4.09,1.86c0.21,-0.14 1.26,-1.73 0.54,-2.16c-0.91,-0.59 -1.93,-1.34 -2.61,-1.61c0.81,-0.44 1.46,-0.79 1.61,-0.87c1.15,-0.57 1.38,-0.82 1.25,-1.98c-0.13,-0.23 -0.63,-0.63 -0.89,-0.74c-0.6,-0.27 -1.11,-0.62 -1.75,-0.9c0.5,-0.23 1,-0.48 1.47,-0.72c2.12,-1.21 2.01,-0.92 1.37,-2.02c-0.81,-1.13 -1.96,-0.53 -2.49,-0.3c-0.27,0.13 -1.93,0.79 -3.44,1.61c-0.93,-0.54 -2.1,-1.16 -3.19,-1.63c-1.47,-0.67 -1.72,-0.73 -2.23,0c-0.89,1.3 -0.34,1.23 1.16,2.14c0.15,0.08 0.89,0.43 1.43,0.81c-0.65,0.34 -1.4,0.62 -2.19,1.12c-0.2,0.1 -0.81,0.45 -0.86,0.83c0,0.55 -0.23,1.14 1.44,2.04c0.53,0.28 0.97,0.49 1.47,0.72c-1.08,0.54 -2.29,1.18 -2.66,1.85m-7.94,-2.58c0,-0.72 1.21,-0.61 3.59,-0.54c2.08,0 1.95,0.45 2.04,-1.26c0.01,-0.65 0.07,-0.8 -1.34,-0.85c-4.81,-0.24 -4.39,-0.13 -4.38,-1.25c0.04,-0.96 0.82,-0.74 3.72,-0.59c1.89,0.08 2.02,0.37 2.17,-0.91c0.09,-0.79 -0.04,-1.34 -0.04,-1.34c-1.38,0 -6.66,-0.54 -7.96,-0.4c-1.4,0.19 -1.39,0.07 -1.31,2.88c0.18,2.53 0.28,4.93 0.83,7.06c0.61,1.28 0.69,1.03 6.04,1.25c2.83,-0.03 2.53,0.17 2.75,-1.72c0.05,-0.69 0.19,-0.83 -4.41,-1.1c-2.09,0.04 -1.75,0.21 -1.7,-1.25m30.21,-20.54c-0.19,-4.67 -0.29,-4.22 -3.53,-4.22c-2.82,0 -9.84,-0.01 -10.31,-0.05c0,-0.65 -0.18,-2.1 -0.1,-3.41c0.11,-1.82 1.15,-2.29 -6.3,-3.05c-1.76,-0.16 -13.01,0.28 -13.74,1.61c-0.82,1.37 -2.19,3.57 -1.14,5.46c1.59,-1.26 3.1,-2.23 6.51,-3.46c2.73,-0.48 7.17,-0.89 9.45,-0.21c1.61,0.66 1.56,1.13 1.47,2.87c-5.25,0.32 -8.04,0.46 -9.78,0.56c-2.88,0.35 -2.73,0.31 -2.77,1.75c0.14,1.15 0.43,1.44 2.31,1.33c1.04,-0.15 3.26,-0.31 6.27,-0.31l3.98,0l0,2.31c0,0 -4.04,-0.15 -5.54,-0.07c-4.76,0.2 -4,0.88 -4.24,3.05c0.41,3.88 0.4,3.36 3.91,3.6c3.02,0.06 11.55,0.21 13.76,0.14c3.45,-0.32 2.99,-0.57 2.94,-3.63c-0.35,-1.75 0.29,-2.36 -3.12,-2.86c-0.61,-0.01 -3.88,-0.25 -3.88,-0.25l0,-2.27l7.69,0c0,0 2.73,0.04 2.73,2.31c0,2.27 0.32,5.7 0.32,5.7c0,0 -0.04,2.43 -2.39,2.43c-2.35,0 -15.21,0.19 -20.48,0.1c-4.08,-0.03 -4.18,-0.69 -4.52,-2.1c-0.38,-1.58 -0.68,-8.07 -1.89,-7.81c-3.06,0.76 -2.38,1.1 -2.33,2.9c0.13,2.43 0.55,4.92 0.98,7.32c0.66,1.7 0.94,2.62 11,2.56c4.63,0 18.22,0.02 18.22,0.02c3.07,-0.19 4.12,-0.16 4.54,-3.14c0.35,-4.36 0.16,-5.74 0,-9.14m3.21,43.65c0,3.57 0.36,4.18 1.06,5.23c0.77,0.39 1.78,-0.15 2.13,-0.58c0.49,-1.25 -0.35,-7.54 -0.46,-10.34c-0.18,-2.78 0.71,-5.6 -0.39,-6.06c-1.18,-0.4 -1.99,-0.04 -2.08,0.76c-0.4,3.36 -0.26,10.99 -0.26,10.99m1.2,11.91c0.44,2.74 0.23,5.86 0.47,6.7c0.26,0.27 0.97,0.47 1.83,0.28c1.01,-0.72 1.33,-9.58 -0.92,-11.34c-0.67,-0.01 -1.48,-0.09 -1.74,0.39c-0.33,0.61 0.02,1.99 0.35,3.97m3.91,-5.92c0.15,1.86 0.69,8.27 0.47,9.9c0.05,1.06 -0.11,2.57 0.23,3.73c0.16,0.53 0.7,0.61 1.62,0.7c1.5,0.29 1.17,-4.93 1.17,-4.93c-0.14,-4.52 -1.35,-13.4 -1.35,-15.73c-0.45,-3.82 1.36,-13.99 0.35,-14.94c-0.33,-0.16 -1.6,-0.37 -1.91,0.27c-0.96,2.75 -1.02,6.97 -1.19,10.57c-0.25,4.06 0.45,8.56 0.6,10.42m5.28,-2.35c1.4,-0.56 1.48,-4.94 1.48,-4.94c0.03,-0.59 0.13,-4.4 0.13,-5.71c0.04,-1.27 0.1,-2.21 -0.1,-2.76c-0.45,-0.35 -0.95,-0.44 -1.75,-0.28c-0.63,0.37 -0.97,3.76 -0.97,4.88c0,1.13 -0.03,3.74 -0.36,6.27c-0.33,2.54 -0.05,2.24 1.57,2.53m-0.7,14.11c0.06,1.15 -0.01,1.44 0.94,1.51c1.53,0.04 1.51,-0.52 1.63,-1.29c-0.02,-1.22 -0.05,-3.7 -0.08,-6.03c-0.01,-1.36 0.01,-4.27 -1.07,-4.68c-1.21,-0.17 -1.92,-0.28 -1.85,1.07c-0.09,0.79 0.33,2 0.54,3.25c0.2,1.24 0.03,4.7 -0.12,6.17m3.91,-4.69c0.58,5.54 0.72,4.97 3.8,6.12c3.67,0.66 5.66,1.24 7.57,1.18c1.91,-0.06 6.18,-0.17 10.12,-1.67c1.69,-0.6 1.01,-1.17 1.09,-7.53c-0.27,-2.39 -0.47,-2 -2.92,-2.23c-2.01,0.06 -3.09,-0.12 -5.71,0.61c-0.85,1.05 -1.9,6.75 -3.82,6.05c-0.8,-0.6 0,-0.69 -1.38,-3.45c-0.28,-0.43 -0.76,-1.79 -1.28,-2.36c-1.97,-0.91 -3.66,-0.64 -5.9,-0.72c-2.08,0.08 -1.55,1.08 -1.57,4m33.01,1.23c0,-1.52 0.64,-2.88 1.66,-3.85l0.04,-0.04l17.96,-17.96l0,-0.01c0.96,-0.96 1.56,-2.29 1.56,-3.76l0,22.48c0,1.05 -0.61,2.52 -1.35,3.27l-37.69,37.69c-0.74,0.74 -2.21,1.35 -3.27,1.35l-2.78,0c-0.73,0 -1.33,-0.59 -1.33,-1.32l0,-17.9c0,-1.1 -0.89,-1.99 -1.99,-1.99l-1.99,0l0,17.24c0,2.2 -1.78,3.98 -3.98,3.98l-29.17,0c-2.2,0 -3.98,-1.78 -3.98,-3.98l0,-17.24l-2,0c-1.09,0 -1.98,0.89 -1.98,1.99l0,17.9c0,0.73 -0.59,1.32 -1.33,1.32l-2.78,0c-1.05,0 -2.52,-0.61 -3.27,-1.35l-37.69,-37.69c-0.74,-0.74 -1.35,-2.21 -1.35,-3.27l0,-22.48c0,1.47 0.6,2.8 1.56,3.76l0,0.01l17.96,17.96l0.03,0.04c1.02,0.97 1.66,2.33 1.66,3.85l0,-2.19l0,-1.55c0,-1.47 -0.6,-2.8 -1.56,-3.76l0,0l-17.96,-17.96l-0.04,-0.04c-1.02,-0.97 -1.66,-2.33 -1.66,-3.85l0,-20.34c0,1.47 0.6,2.8 1.56,3.76l0,0l17.96,17.96l0.03,0.04c1.02,0.97 1.66,2.33 1.66,3.85l0,-2.19l0,-1.55c0,-1.47 -0.6,-2.8 -1.56,-3.76l0,0l-17.96,-17.96l-0.04,-0.04c-1.02,-0.97 -1.66,-2.33 -1.66,-3.85l0,-2.99c0,-1.05 0.61,-2.52 1.35,-3.27l5.26,-5.26l12.91,12.91l0.03,0.04c1.02,0.97 1.66,2.33 1.66,3.85l0,-2.19l0,-1.55c0,-1.47 -0.6,-2.8 -1.56,-3.76l0,0l-11.17,-11.17l30.24,-30.24l8.18,14.71c0.7,1.3 2.08,2.18 3.65,2.18l1.25,0l1.91,0c-1.61,0 -3,-0.92 -3.69,-2.25l0,0l-8.95,-16.1c0.43,-0.13 0.86,-0.21 1.23,-0.21l15.52,0l2.96,16.36c0.22,1.25 1.32,2.2 2.63,2.2l0.04,0l0.44,0l2.23,0c-1.32,0 -2.42,-0.96 -2.64,-2.23l-2.96,-16.34l16.84,0l-2.96,16.34c-0.21,1.26 -1.31,2.23 -2.64,2.23l2.23,0l0.44,0l0.04,0c1.32,0 2.41,-0.95 2.63,-2.2l2.96,-16.36l15.52,0c0.38,0 0.81,0.08 1.23,0.21l-8.95,16.1l0,0c-0.69,1.34 -2.08,2.25 -3.69,2.25l1.91,0l1.25,0c1.58,0 2.95,-0.88 3.65,-2.18l8.18,-14.71l30.24,30.24l-11.17,11.17l0,0c-0.96,0.96 -1.56,2.29 -1.56,3.76l0,1.55l0,2.19c0,-1.51 0.64,-2.88 1.66,-3.85l0.04,-0.04l12.91,-12.91l5.26,5.26c0.74,0.74 1.35,2.21 1.35,3.27l0,2.99c0,1.52 -0.64,2.88 -1.66,3.85l-0.04,0.04l-17.96,17.96l0,0c-0.96,0.96 -1.56,2.29 -1.56,3.76l0,1.55l0,2.19c0,-1.51 0.64,-2.88 1.66,-3.85l0.04,-0.04l17.96,-17.97l0,0c0.96,-0.96 1.56,-2.29 1.56,-3.76l0,20.34c0,1.52 -0.64,2.88 -1.66,3.85l-0.04,0.04l-17.96,17.96l0,0c-0.96,0.96 -1.56,2.29 -1.56,3.76l0,1.55l0,2.19z" id="path130"/>
    </g>
    <g transform="matrix(1.33 0 0 -1.33 0 816.38)" id="g132">
     <path fill-rule="nonzero" fill="#98214a" d="m146.6,526.03l1.61,0.09c0.84,0.19 0.75,1.43 0.26,3.24c-0.53,1.08 -2.05,1.01 -3.52,0.98c-0.59,-0.03 -1.02,-0.13 -0.83,-1.05c0.59,-3.58 0.75,-3.03 2.48,-3.26" id="path134"/>
    </g>
    <g transform="matrix(1.33 0 0 -1.33 0 816.38)" id="g136">
     <path fill-rule="nonzero" fill="#98214a" d="m132.58,525.81l1.16,0.09c2.35,0.16 2.21,1.43 2.49,3.4c0.14,0.78 -1.18,0.61 -2.46,0.37c-1.22,-0.23 -1.25,-0.18 -1.49,-1.08c-0.22,-0.85 -0.55,-2.54 0.29,-2.79" id="path138"/>
    </g>
   </g>
  </g>
 </g>
</svg>